:version 1.10
:name ASF
:units
  mass 1
  length 1
  angle deg
:documentation
  ASF file generated by Kaydara
:root
  axis xyz
  order  tx ty tz rx ry rz
  position 0 0 0
  orientation 0 0 0
:bonedata
  begin
    id 1
    name RightUpLegDummy
    direction -0.65628 -0.754516 0.00165102
    length 4.76918
    axis 0 0 0 xyz
  end
  begin
    id 2
    name RightUpLeg
    direction -0.145584 -0.923362 0.355256
    length 17.9961
    axis -24.7611 -13.1006 1.78531 xyz
    dof rx ry rz
  end
  begin
    id 3
    name RightLeg
    direction 0.263379 0.172355 -0.949171
    length 13.3386
    axis 89.6202 -21.1929 12.3855 xyz
    dof rx ry rz
  end
  begin
    id 4
    name RightFoot
    direction 0.224283 -0.968777 -0.105675
    length 5.86697
    axis 56.995 -39.6905 17.3365 xyz
    dof rx ry rz
  end
  begin
    id 5
    name RightToes
    direction -0.0806345 -0.9037 0.420506
    length 4.75197
    axis 146.825 -39.7828 17.6019 xyz
    dof rx ry rz
  end
  begin
    id 6
    name SpineDummy
    direction -3.39852e-014 1 9.33296e-014
    length 8.13779
    axis 0 0 0 xyz
  end
  begin
    id 7
    name Spine
    direction -0.156609 0.733703 0.661176
    length 7.14978
    axis 41.2365 5.68757 17.0844 xyz
    dof rx ry rz
  end
  begin
    id 8
    name Spine1
    direction 0 0 0
    length 0
    axis 42.8809 47.8308 -3.36039 xyz
    dof rx ry rz
  end
  begin
    id 9
    name HEadDummy
    direction 0.546431 0.701947 0.456819
    length 3.55512
    axis 42.8809 47.8308 -3.36039 xyz
  end
  begin
    id 10
    name HEad
    direction 0.23444 0.828559 0.508457
    length 7.35827
    axis 51.1864 49.2662 27.4903 xyz
    dof rx ry rz
  end
  begin
    id 11
    name LeftShoulder1Dummy
    direction 0.431183 0.475873 -0.766568
    length 2.49352
    axis 42.8809 47.8308 -3.36039 xyz
  end
  begin
    id 12
    name LeftShoulder1
    direction 0.268187 -0.383402 -0.883786
    length 4.48604
    axis -119.517 0.106469 35.1736 xyz
    dof rx ry rz
  end
  begin
    id 13
    name LeftArm
    direction 0.380567 -0.703221 -0.600541
    length 10.1142
    axis -5.41825 36.2925 7.8293 xyz
    dof rx ry rz
  end
  begin
    id 14
    name LeftForeArm
    direction 0.541071 -0.732356 -0.413396
    length 9.39839
    axis 4.65387 33.7604 7.81644 xyz
    dof rx ry rz
  end
  begin
    id 15
    name LeftHand
    direction 0.847511 -0.389379 -0.360707
    length 3.66142
    axis 7.65593 21.1436 -24.6758 xyz
    dof rx ry rz
  end
  begin
    id 16
    name RightShoulderDummy
    direction -0.692546 0.541855 0.476208
    length 2.49352
    axis 42.8809 47.8308 -3.36039 xyz
  end
  begin
    id 17
    name RightShoulder
    direction -0.870808 -0.316653 0.376065
    length 4.48602
    axis 141.571 51.133 -100.254 xyz
    dof rx ry rz
  end
  begin
    id 18
    name RightArm
    direction 0.366897 -0.87275 0.322015
    length 10.1142
    axis 92.3258 71.2036 138.917 xyz
    dof rx ry rz
  end
  begin
    id 19
    name RightForeArm
    direction 0.702487 -0.694568 0.155197
    length 9.39835
    axis 153.863 41.5092 -176.604 xyz
    dof rx ry rz
  end
  begin
    id 20
    name RightHand
    direction 0.79502 -0.601276 0.0800636
    length 3.66142
    axis 154.247 4.59222 142.9 xyz
    dof rx ry rz
  end
  begin
    id 21
    name LeftUpLegDummy
    direction 0.65628 -0.754516 0.00165102
    length 4.76919
    axis 0 0 0 xyz
  end
  begin
    id 22
    name LeftUpLeg
    direction -0.1277 -0.689368 0.713067
    length 17.9961
    axis -48.3385 -17.8675 0.791927 xyz
    dof rx ry rz
  end
  begin
    id 23
    name LeftLeg
    direction 0.109849 -0.991246 -0.0732378
    length 13.3386
    axis -2.05791 -7.30784 1.72042 xyz
    dof rx ry rz
  end
  begin
    id 24
    name LeftFoot
    direction 0.0448355 -0.272614 0.961078
    length 5.86697
    axis -18.7733 -7.89606 10.2113 xyz
    dof rx ry rz
  end
  begin
    id 25
    name LeftToes
    direction -0.18506 0.293668 0.937823
    length 4.75197
    axis 71.2267 -7.89606 10.2113 xyz
    dof rx ry rz
  end
:hierarchy
  begin
    root RightUpLegDummy SpineDummy LeftUpLegDummy
    RightUpLegDummy RightUpLeg
    RightUpLeg RightLeg
    RightLeg RightFoot
    RightFoot RightToes
    SpineDummy Spine
    Spine Spine1
    Spine1 HEadDummy LeftShoulder1Dummy RightShoulderDummy
    HEadDummy HEad
    LeftShoulder1Dummy LeftShoulder1
    LeftShoulder1 LeftArm
    LeftArm LeftForeArm
    LeftForeArm LeftHand
    RightShoulderDummy RightShoulder
    RightShoulder RightArm
    RightArm RightForeArm
    RightForeArm RightHand
    LeftUpLegDummy LeftUpLeg
    LeftUpLeg LeftLeg
    LeftLeg LeftFoot
    LeftFoot LeftToes
  end

:SAMPLES-PER-SECOND 30
:FULLY-SPECIFIED
:DEGREES
307
root  -0.747666 38.9466 13.8132 -165.496 -64.8959 169.404
RightUpLeg  -5.16707 3.17135 -6.12138
RightLeg  -65.8564 -18.3635 6.04815
RightFoot  14.0536 4.65877 -14.4637
RightToes  -1.27222e-014 -6.36111e-015 6.36111e-015
Spine  -22.9339 -13.9899 -8.16655
Spine1  6.15345 -11.6587 32.1065
HEad  -30.163 -66.1444 20.1674
LeftShoulder1  6.36111e-015 -1.33558e-015 6.49777e-015
LeftArm  11.4077 -17.3245 -28.1866
LeftForeArm  -64.8903 -51.3002 48.5391
LeftHand  -0.785642 -1.0056 -5.34986
RightShoulder  -4.77083e-015 -6.36111e-015 -3.18055e-015
RightArm  40.7327 -15.6106 19.1948
RightForeArm  -21.6988 29.8804 -36.7547
RightHand  -0.396171 2.45587 -0.235515
LeftUpLeg  14.4947 13.3308 5.25645
LeftLeg  -12.2927 -16.4017 -0.189458
LeftFoot  4.36261 7.19673 -21.1327
LeftToes  1.27222e-014 -5.20697e-012 1.80337e-011
308
root  -0.389142 39.1815 14.455 -165.484 -62.2439 167.697
RightUpLeg  -9.09368 -0.228844 -2.29007
RightLeg  -68.8388 -16.5591 4.16714
RightFoot  11.613 3.97884 -12.7095
RightToes  -1.27222e-014 -6.36111e-015 6.36111e-015
Spine  -21.4153 -13.2854 -6.2955
Spine1  5.00599 -11.7982 31.3257
HEad  -29.5024 -67.2205 21.5555
LeftShoulder1  6.36111e-015 -1.33558e-015 6.49777e-015
LeftArm  10.203 -43.3694 -37.6379
LeftForeArm  -61.7723 -53.6393 50.0619
LeftHand  -0.928022 -1.32408 -5.8491
RightShoulder  -4.77083e-015 -6.36111e-015 -3.18055e-015
RightArm  33.3498 -5.32128 35.5952
RightForeArm  -17.6282 32.8895 -35.824
RightHand  -0.355779 1.72965 0.537163
LeftUpLeg  18.9522 15.5465 2.73615
LeftLeg  -4.47366 -13.4933 -1.30517
LeftFoot  2.55126 5.70865 -17.7091
LeftToes  1.27222e-014 -5.20697e-012 1.80337e-011
309
root  -0.0118259 39.0963 15.1717 -166.704 -57.4207 168.575
RightUpLeg  -12.0811 -0.63096 3.87121
RightLeg  -77.5231 -14.0108 1.6585
RightFoot  9.52234 3.95233 -12.129
RightToes  -1.27222e-014 -6.36111e-015 6.36111e-015
Spine  -20.7129 -10.4538 -4.62189
Spine1  4.70674 -9.90394 31.5088
HEad  -30.8849 -68.0657 23.0744
LeftShoulder1  6.36111e-015 -1.33558e-015 6.49777e-015
LeftArm  6.78539 -67.1409 -41.1595
LeftForeArm  -58.7104 -56.3327 51.7005
LeftHand  -0.894575 -1.17322 -6.08969
RightShoulder  -4.77083e-015 -6.36111e-015 -3.18055e-015
RightArm  31.0382 8.14749 47.7633
RightForeArm  -11.6976 32.7077 -30.503
RightHand  -0.38865 1.27536 1.47335
LeftUpLeg  23.4892 19.8641 2.74651
LeftLeg  1.26056 -10.261 -1.52524
LeftFoot  3.77738 4.9857 -14.9546
LeftToes  1.27222e-014 -5.20697e-012 1.80337e-011
310
root  0.259302 38.6478 15.8167 -166.809 -52.4927 169.227
RightUpLeg  -13.0813 0.927409 9.8383
RightLeg  -89.0624 -11.7112 -3.47202
RightFoot  9.02381 2.79442 -9.78647
RightToes  -1.27222e-014 -6.36111e-015 6.36111e-015
Spine  -20.9853 -8.49537 -4.73092
Spine1  5.00466 -7.97302 31.2185
HEad  -31.4392 -68.4516 22.1643
LeftShoulder1  6.36111e-015 -1.33558e-015 6.49777e-015
LeftArm  -29.3402 -84.0582 -9.42153
LeftForeArm  -55.4199 -58.3923 51.58
LeftHand  -0.976021 -1.48731 -5.75226
RightShoulder  -4.77083e-015 -6.36111e-015 -3.18055e-015
RightArm  31.0474 18.3518 55.5058
RightForeArm  -7.09896 30.4436 -25.1133
RightHand  -0.771947 2.01053 3.87616
LeftUpLeg  28.6118 24.6797 3.62166
LeftLeg  1.47064 -7.22932 -1.10168
LeftFoot  1.71181 3.77205 -12.0287
LeftToes  1.27222e-014 -5.20697e-012 1.80337e-011
311
root  0.38808 37.8684 16.3992 -165.573 -50.3663 168.842
RightUpLeg  -13.5698 10.375 12.5015
RightLeg  -98.7421 -8.90032 -0.409317
RightFoot  11.9027 2.44042 -10.0147
RightToes  -1.27222e-014 -6.36111e-015 6.36111e-015
Spine  -21.1806 -7.61093 -3.90809
Spine1  2.89205 -7.89172 30.7752
HEad  -29.3959 -68.4341 18.5056
LeftShoulder1  6.36111e-015 -1.33558e-015 6.49777e-015
LeftArm  -128.591 -79.8585 87.1448
LeftForeArm  -49.7856 -59.6593 47.7599
LeftHand  -1.24493 -2.364 -5.32827
RightShoulder  -4.77083e-015 -6.36111e-015 -3.18055e-015
RightArm  30.3011 23.4834 58.8114
RightForeArm  -4.86852 29.1916 -22.553
RightHand  -1.28612 3.52816 7.00856
LeftUpLeg  32.8985 27.9494 3.49073
LeftLeg  -2.70638 -4.85577 -0.91733
LeftFoot  -6.26745 1.86922 -7.715
LeftToes  1.27222e-014 -5.20697e-012 1.80337e-011
312
root  0.599779 36.9244 16.9935 -163.657 -51.7734 167.322
RightUpLeg  -16.6819 17.3646 13.0968
RightLeg  -99.1939 -9.73109 3.18461
RightFoot  15.7575 5.05144 -15.462
RightToes  -1.27222e-014 -6.36111e-015 6.36111e-015
Spine  -20.3599 -8.04193 -1.67329
Spine1  -1.30952 -10.0556 31.858
HEad  -26.3804 -67.3082 14.0311
LeftShoulder1  6.36111e-015 -1.33558e-015 6.49777e-015
LeftArm  -132.687 -72.1227 89.907
LeftForeArm  -42.2065 -60.0889 41.2767
LeftHand  -1.52622 -3.28768 -4.67727
RightShoulder  -4.77083e-015 -6.36111e-015 -3.18055e-015
RightArm  30.6996 26.1957 58.1565
RightForeArm  -4.56136 31.9031 -23.9955
RightHand  -1.66868 5.77159 8.69641
LeftUpLeg  33.3981 29.1675 2.59064
LeftLeg  -3.93626 -5.09896 -0.988308
LeftFoot  -15.3757 0.668229 -3.86837
LeftToes  1.27222e-014 -5.20697e-012 1.80337e-011
313
root  0.72079 36.1276 17.5012 -163.623 -54.0769 165.984
RightUpLeg  -19.3479 21.2755 12.7385
RightLeg  -94.2197 -12.1599 5.15311
RightFoot  18.9625 8.47543 -21.4639
RightToes  -1.27222e-014 -6.36111e-015 6.36111e-015
Spine  -19.1441 -9.53114 -0.134305
Spine1  -4.46313 -12.4525 35.7612
HEad  -21.8246 -64.7237 7.78457
LeftShoulder1  6.36111e-015 -1.33558e-015 6.49777e-015
LeftArm  -121.025 -68.0549 76.9723
LeftForeArm  -34.8353 -57.3762 32.0551
LeftHand  -1.74831 -3.97399 -4.31284
RightShoulder  -4.77083e-015 -6.36111e-015 -3.18055e-015
RightArm  32.5345 26.571 52.8082
RightForeArm  -8.03393 36.1655 -29.846
RightHand  -1.89531 8.39324 8.05856
LeftUpLeg  31.7851 30.3617 2.93257
LeftLeg  2.32161 -5.973 -0.904031
LeftFoot  -19.871 0.335371 -2.17677
LeftToes  1.27222e-014 -5.20697e-012 1.80337e-011
314
root  0.417748 35.5128 17.7272 -167.814 -54.8823 167.028
RightUpLeg  -19.4791 23.2483 13.2256
RightLeg  -87.1293 -13.8979 6.79927
RightFoot  19.7625 8.83646 -22.0816
RightToes  -1.27222e-014 -6.36111e-015 6.36111e-015
Spine  -18.9791 -10.7622 -0.393112
Spine1  -4.97417 -13.2567 41.9532
HEad  -11.872 -61.1458 -2.72975
LeftShoulder1  6.36111e-015 -1.33558e-015 6.49777e-015
LeftArm  -96.828 -67.0668 49.9549
LeftForeArm  -32.726 -49.7442 22.6914
LeftHand  -2.09761 -4.88391 -5.17715
RightShoulder  -4.77083e-015 -6.36111e-015 -3.18055e-015
RightArm  31.926 20.648 41.3446
RightForeArm  -18.241 34.8108 -38.0565
RightHand  -2.07406 10.3743 7.18204
LeftUpLeg  32.985 32.0584 6.00893
LeftLeg  11.5569 -5.37193 -0.588418
LeftFoot  -19.8181 0.385887 -2.60955
LeftToes  1.27222e-014 -5.20697e-012 1.80337e-011
315
root  -0.397536 35.003 17.5208 -173.194 -54.6529 168.406
RightUpLeg  -18.2122 21.3427 14.3424
RightLeg  -78.4806 -16.6381 8.8044
RightFoot  18.2529 7.59762 -19.9974
RightToes  -1.27222e-014 -6.36111e-015 6.36111e-015
Spine  -21.5259 -12.3548 -2.26818
Spine1  -3.88323 -13.7081 48.6523
HEad  3.45785 -56.6499 -15.4935
LeftShoulder1  6.36111e-015 -1.33558e-015 6.49777e-015
LeftArm  -61.3431 -63.2557 11.9642
LeftForeArm  -37.1296 -41.0835 15.9668
LeftHand  -2.86714 -7.09074 -6.04421
RightShoulder  -4.77083e-015 -6.36111e-015 -3.18055e-015
RightArm  30.6638 5.42306 25.3172
RightForeArm  -34.2859 26.0704 -43.9144
RightHand  -2.26046 11.9594 7.42803
LeftUpLeg  38.3272 33.4895 10.4956
LeftLeg  18.0375 -4.92277 -0.277664
LeftFoot  -18.3713 0.511681 -3.3712
LeftToes  1.27222e-014 -5.20697e-012 1.80337e-011
316
root  -1.55432 34.4668 16.9134 -176.147 -54.9612 167.33
RightUpLeg  -16.6571 18.1617 13.6199
RightLeg  -69.7482 -21.9866 13.4566
RightFoot  15.7178 7.66397 -19.8754
RightToes  -1.27222e-014 -6.36111e-015 6.36111e-015
Spine  -26.5082 -15.7275 -4.99786
Spine1  -2.28766 -15.5884 54.6273
HEad  18.039 -51.1874 -25.424
LeftShoulder1  6.36111e-015 -1.33558e-015 6.49777e-015
LeftArm  -32.6248 -52.6384 -15.0314
LeftForeArm  -43.6869 -37.8383 14.1454
LeftHand  -3.79156 -9.87958 -7.15156
RightShoulder  -4.77083e-015 -6.36111e-015 -3.18055e-015
RightArm  36.9764 -14.0898 6.71651
RightForeArm  -52.8331 15.6741 -44.2563
RightHand  -2.47318 13.8699 6.56592
LeftUpLeg  45.1567 34.4251 13.4656
LeftLeg  21.2351 -4.99158 -0.244734
LeftFoot  -18.011 0.650398 -4.35799
LeftToes  1.27222e-014 -5.20697e-012 1.80337e-011
317
root  -2.82697 33.8301 16.0661 -178.359 -55.4088 165.437
RightUpLeg  -13.2532 16.63 12.1431
RightLeg  -62.8478 -29.6051 18.6887
RightFoot  13.1017 7.85356 -19.9601
RightToes  -1.27222e-014 -6.36111e-015 6.36111e-015
Spine  -32.5669 -19.7731 -6.95298
Spine1  1.30112 -18.7799 58.5626
HEad  26.8415 -45.6807 -30.9744
LeftShoulder1  6.36111e-015 -1.33558e-015 6.49777e-015
LeftArm  -14.4384 -39.1641 -27.14
LeftForeArm  -51.1753 -39.9647 18.5057
LeftHand  -4.22227 -11.3293 -8.74199
RightShoulder  -4.77083e-015 -6.36111e-015 -3.18055e-015
RightArm  53.7511 -29.0129 -16.3658
RightForeArm  -73.1629 6.90337 -33.6827
RightHand  -2.87123 16.8635 5.20578
LeftUpLeg  52.715 34.708 15.5724
LeftLeg  23.1377 -5.19423 -0.321383
LeftFoot  -18.8464 0.873158 -6.39913
LeftToes  1.27222e-014 -5.20697e-012 1.80337e-011
318
root  -4.01717 33.1544 15.1445 179.379 -54.5405 164.67
RightUpLeg  -8.83936 17.8098 11.9061
RightLeg  -56.8601 -35.457 20.1806
RightFoot  10.0983 6.82311 -17.6981
RightToes  -1.27222e-014 -6.36111e-015 6.36111e-015
Spine  -40.5325 -22.0009 -7.19585
Spine1  7.97922 -21.792 59.7041
HEad  30.8872 -41.4045 -34.1969
LeftShoulder1  6.36111e-015 -1.33558e-015 6.49777e-015
LeftArm  -1.34616 -26.8357 -32.2674
LeftForeArm  -59.2435 -42.9814 26.2386
LeftHand  -4.1024 -11.0252 -9.71593
RightShoulder  -4.77083e-015 -6.36111e-015 -3.18055e-015
RightArm  78.209 -34.6981 -44.9225
RightForeArm  -92.1964 5.11169 -16.3287
RightHand  -3.23314 19.9454 6.32592
LeftUpLeg  59.9159 34.6335 17.8484
LeftLeg  24.022 -5.49469 -0.486408
LeftFoot  -20.2731 1.04455 -8.62524
LeftToes  1.27222e-014 -5.20697e-012 1.80337e-011
319
root  -4.99159 32.4961 14.3146 177.474 -52.551 165.178
RightUpLeg  -5.73382 19.2003 12.9201
RightLeg  -49.9821 -36.71 16.7835
RightFoot  5.99075 6.19296 -15.75
RightToes  -1.27222e-014 -6.36111e-015 6.36111e-015
Spine  -49.0732 -21.3768 -5.58473
Spine1  14.5899 -23.3844 58.3311
HEad  33.6952 -39.1808 -36.312
LeftShoulder1  6.36111e-015 -1.33558e-015 6.49777e-015
LeftArm  9.87836 -18.3791 -35.9466
LeftForeArm  -63.0768 -44.5391 31.417
LeftHand  -3.81042 -10.0546 -9.56751
RightShoulder  -4.77083e-015 -6.36111e-015 -3.18055e-015
RightArm  101.406 -30.513 -71.5329
RightForeArm  -101.727 7.46147 -6.64506
RightHand  -3.21008 19.3539 5.22242
LeftUpLeg  65.7869 34.5855 20.3483
LeftLeg  23.7165 -5.54288 -0.514691
LeftFoot  -22.4767 0.970331 -9.56461
LeftToes  1.27222e-014 -5.20697e-012 1.80337e-011
320
root  -5.62168 31.8572 13.7606 176.883 -50.8945 165.348
RightUpLeg  -5.57257 18.1855 12.8309
RightLeg  -43.6609 -35.1849 12.2955
RightFoot  2.0361 6.98155 -16.7029
RightToes  -1.27222e-014 -6.36111e-015 6.36111e-015
Spine  -54.6767 -20.3709 -3.99613
Spine1  17.5986 -24.1624 57.1814
HEad  35.7874 -37.9757 -37.2371
LeftShoulder1  6.36111e-015 -1.33558e-015 6.49777e-015
LeftArm  19.4727 -13.8681 -40.3364
LeftForeArm  -60.348 -46.5988 34.3745
LeftHand  -3.35094 -8.53597 -8.24168
RightShoulder  -4.77083e-015 -6.36111e-015 -3.18055e-015
RightArm  113.302 -21.7682 -88.9728
RightForeArm  -103.286 7.30642 -1.54266
RightHand  -2.67645 15.1835 1.45071
LeftUpLeg  69.406 35.0095 22.2076
LeftLeg  23.5875 -4.94758 -0.164207
LeftFoot  -25.3731 0.737021 -9.57694
LeftToes  1.27222e-014 -5.20697e-012 1.80337e-011
